<?xml version="1.0" standalone="no"?>
<!DOCTYPE svg PUBLIC "-//W3C//DTD SVG 20010904//EN"
 "http://www.w3.org/TR/2001/REC-SVG-20010904/DTD/svg10.dtd">
<svg version="1.0" xmlns="http://www.w3.org/2000/svg"
 width="755.000000pt" height="755.000000pt" viewBox="0 0 755.000000 755.000000"
 preserveAspectRatio="xMidYMid meet">
<metadata>
Created by potrace 1.11, written by Peter Selinger 2001-2013
</metadata>
<g transform="translate(0.000000,755.000000) scale(0.100000,-0.100000)"
fill="#000000" stroke="none">
<path d="M3529 7516 c-2 -2 -44 -7 -94 -11 -49 -3 -103 -8 -120 -11 -16 -2
-48 -6 -70 -8 -22 -3 -80 -12 -130 -21 -49 -9 -102 -18 -116 -20 -169 -29
-555 -151 -739 -232 -107 -48 -332 -161 -378 -189 -29 -19 -55 -34 -59 -34 -9
0 -227 -143 -293 -192 -308 -230 -595 -511 -781 -765 -24 -32 -45 -60 -49 -63
-12 -11 -130 -190 -190 -290 -116 -193 -246 -470 -320 -685 -71 -204 -151
-532 -177 -730 -10 -77 -10 -944 0 -1010 93 -609 297 -1136 624 -1613 35 -51
68 -99 73 -105 5 -7 38 -48 72 -92 34 -44 91 -114 127 -155 124 -142 356 -364
481 -460 25 -19 47 -37 50 -40 20 -22 289 -205 381 -259 258 -153 534 -274
842 -370 69 -22 289 -77 342 -87 17 -2 66 -11 110 -19 44 -8 103 -17 130 -20
28 -4 60 -8 72 -10 124 -20 581 -27 763 -12 96 8 244 29 341 47 30 6 68 13 84
15 146 25 487 127 679 204 100 40 314 144 426 206 82 46 387 244 412 268 7 7
31 25 53 41 88 65 229 190 355 316 148 148 215 225 337 386 180 236 359 544
457 784 15 36 31 74 36 85 45 98 152 438 176 560 2 11 6 31 9 45 17 78 32 160
39 205 2 17 7 48 11 70 21 140 30 283 30 510 0 273 -9 394 -51 650 -36 226
-134 559 -234 800 -130 313 -354 687 -558 930 -112 134 -289 318 -419 436 -40
36 -216 178 -263 212 -14 9 -52 36 -85 60 -238 170 -466 288 -860 448 -78 31
-394 123 -465 135 -14 3 -33 7 -42 10 -10 3 -28 7 -40 9 -13 2 -52 9 -88 16
-36 6 -76 13 -90 15 -14 1 -61 8 -105 14 -44 6 -100 13 -125 16 -55 6 -565 16
-571 10z"/>
</g>
</svg>
